<?xml version="1.0" encoding="UTF-8"?>
<!DOCTYPE svg PUBLIC "-//W3C//DTD SVG 1.1//EN" "http://www.w3.org/Graphics/SVG/1.1/DTD/svg11.dtd">
<svg xmlns="http://www.w3.org/2000/svg" version="1.1" width="256px" height="256px" style="shape-rendering:geometricPrecision; text-rendering:geometricPrecision; image-rendering:optimizeQuality; fill-rule:evenodd; clip-rule:evenodd" xmlns:xlink="http://www.w3.org/1999/xlink">
<g><path style="opacity:1" fill="#e900fe" d="M 34.5,-0.5 C 107.5,-0.5 180.5,-0.5 253.5,-0.5C 253.833,0.5 254.5,1.16667 255.5,1.5C 255.5,74.5 255.5,147.5 255.5,220.5C 252.282,240.052 240.948,251.718 221.5,255.5C 158.5,255.5 95.5,255.5 32.5,255.5C 14.5,251.5 3.5,240.5 -0.5,222.5C -0.5,159.5 -0.5,96.5 -0.5,33.5C 3.28159,14.0518 14.9483,2.71843 34.5,-0.5 Z"/></g>
<g><path style="opacity:1" fill="#000000" d="M 30.5,7.5 C 84.8333,7.5 139.167,7.5 193.5,7.5C 193.333,21.1707 193.5,34.8374 194,48.5C 194.833,52 197,54.1667 200.5,55C 216.163,55.4999 231.83,55.6666 247.5,55.5C 247.667,111.834 247.5,168.168 247,224.5C 243.5,236 236,243.5 224.5,247C 159.833,247.667 95.1667,247.667 30.5,247C 19,243.5 11.5,236 8,224.5C 7.33333,159.833 7.33333,95.1667 8,30.5C 11.684,18.9837 19.184,11.3171 30.5,7.5 Z"/></g>
<g><path style="opacity:1" fill="#e900ff" d="M 165.5,10.5 C 166.5,10.5 167.5,10.5 168.5,10.5C 168.5,19.1667 168.5,27.8333 168.5,36.5C 167.5,36.5 166.5,36.5 165.5,36.5C 165.5,27.8333 165.5,19.1667 165.5,10.5 Z"/></g>
<g><path style="opacity:1" fill="#000000" d="M 204.5,10.5 C 206.167,10.5 207.833,10.5 209.5,10.5C 209.059,19.2756 209.559,27.9422 211,36.5C 216.304,38.3079 221.804,38.9746 227.5,38.5C 227.5,40.1667 227.5,41.8333 227.5,43.5C 221.824,43.6661 216.157,43.4994 210.5,43C 208.714,42.2155 207.214,41.0488 206,39.5C 204.58,29.9138 204.08,20.2471 204.5,10.5 Z"/></g>
<g><path style="opacity:1" fill="#e900fe" d="M 86.5,13.5 C 87.5,13.5 88.5,13.5 89.5,13.5C 89.3339,19.1764 89.5006,24.8431 90,30.5C 90.5,31 91,31.5 91.5,32C 95.1516,32.4986 98.8183,32.6653 102.5,32.5C 102.5,33.8333 102.5,35.1667 102.5,36.5C 98.1539,36.6657 93.8206,36.499 89.5,36C 88.6667,35.1667 87.8333,34.3333 87,33.5C 86.5004,26.8417 86.3337,20.175 86.5,13.5 Z"/></g>
<g><path style="opacity:1" fill="#e900fe" d="M 108.5,18.5 C 112.911,18.021 117.078,18.6876 121,20.5C 121.978,23.6693 121.478,26.5027 119.5,29C 115.848,29.4986 112.182,29.6653 108.5,29.5C 108.33,30.8221 108.663,31.9887 109.5,33C 113.152,33.4986 116.818,33.6653 120.5,33.5C 120.5,34.5 120.5,35.5 120.5,36.5C 116.154,36.6657 111.821,36.499 107.5,36C 107,35.5 106.5,35 106,34.5C 105.333,30.1667 105.333,25.8333 106,21.5C 106.698,20.3094 107.531,19.3094 108.5,18.5 Z"/></g>
<g><path style="opacity:1" fill="#e700fc" d="M 123.5,18.5 C 124.822,18.33 125.989,18.6634 127,19.5C 128.619,24.365 130.619,29.0317 133,33.5C 135.424,28.9841 137.59,24.3174 139.5,19.5C 140.723,18.3861 142.056,18.2195 143.5,19C 140.926,24.8928 138.26,30.7261 135.5,36.5C 133.249,37.8647 131.249,37.5314 129.5,35.5C 127.493,29.8099 125.493,24.1432 123.5,18.5 Z"/></g>
<g><path style="opacity:1" fill="#e900fe" d="M 148.5,18.5 C 151.85,18.335 155.183,18.5017 158.5,19C 162.485,22.3807 162.485,25.714 158.5,29C 155.183,29.4983 151.85,29.665 148.5,29.5C 148.33,30.8221 148.663,31.9887 149.5,33C 153.152,33.4986 156.818,33.6653 160.5,33.5C 160.5,34.5 160.5,35.5 160.5,36.5C 147.749,39.9096 142.582,35.2429 145,22.5C 145.69,20.6498 146.856,19.3164 148.5,18.5 Z"/></g>
<g><path style="opacity:1" fill="#090209" d="M 237.5,17.5 C 240.833,17.5 244.167,17.5 247.5,17.5C 247.5,19.1667 247.5,20.8333 247.5,22.5C 243.743,22.0708 240.243,22.7375 237,24.5C 236.5,30.8246 236.334,37.1579 236.5,43.5C 234.833,43.5 233.167,43.5 231.5,43.5C 231.104,35.747 231.604,28.0804 233,20.5C 234.409,19.2189 235.909,18.2189 237.5,17.5 Z"/></g>
<g><path style="opacity:1" fill="#000000" d="M 108.5,22.5 C 111.833,22.5 115.167,22.5 118.5,22.5C 118.67,23.8221 118.337,24.9887 117.5,26C 114.518,26.498 111.518,26.6646 108.5,26.5C 108.5,25.1667 108.5,23.8333 108.5,22.5 Z"/></g>
<g><path style="opacity:1" fill="#000000" d="M 148.5,22.5 C 151.518,22.3354 154.518,22.502 157.5,23C 158.833,24 158.833,25 157.5,26C 154.518,26.498 151.518,26.6646 148.5,26.5C 148.5,25.1667 148.5,23.8333 148.5,22.5 Z"/></g>
<g><path style="opacity:1" fill="#e900ff" d="M 137.5,55.5 C 130.833,55.5 124.167,55.5 117.5,55.5C 117.5,52.1667 117.5,48.8333 117.5,45.5C 124.167,45.5 130.833,45.5 137.5,45.5C 137.5,48.8333 137.5,52.1667 137.5,55.5 Z"/></g>
<g><path style="opacity:1" fill="#e900ff" d="M 117.5,55.5 C 117.5,59.1667 117.5,62.8333 117.5,66.5C 110.5,66.5 103.5,66.5 96.5,66.5C 96.5,62.8333 96.5,59.1667 96.5,55.5C 103.5,55.5 110.5,55.5 117.5,55.5 Z"/></g>
<g><path style="opacity:1" fill="#540071" d="M 117.5,55.5 C 124.167,55.5 130.833,55.5 137.5,55.5C 137.5,59.1667 137.5,62.8333 137.5,66.5C 134.167,66.5 130.833,66.5 127.5,66.5C 124.167,66.5 120.833,66.5 117.5,66.5C 117.5,62.8333 117.5,59.1667 117.5,55.5 Z"/></g>
<g><path style="opacity:1" fill="#e900ff" d="M 137.5,55.5 C 144.5,55.5 151.5,55.5 158.5,55.5C 158.5,59.1667 158.5,62.8333 158.5,66.5C 151.5,66.5 144.5,66.5 137.5,66.5C 137.5,62.8333 137.5,59.1667 137.5,55.5 Z"/></g>
<g><path style="opacity:1" fill="#e900ff" d="M 96.5,66.5 C 96.5,69.8333 96.5,73.1667 96.5,76.5C 89.8333,76.5 83.1667,76.5 76.5,76.5C 76.5,73.1667 76.5,69.8333 76.5,66.5C 83.1667,66.5 89.8333,66.5 96.5,66.5 Z"/></g>
<g><path style="opacity:1" fill="#540071" d="M 96.5,66.5 C 103.5,66.5 110.5,66.5 117.5,66.5C 117.5,69.8333 117.5,73.1667 117.5,76.5C 110.5,76.5 103.5,76.5 96.5,76.5C 96.5,73.1667 96.5,69.8333 96.5,66.5 Z"/></g>
<g><path style="opacity:1" fill="#7f008b" d="M 117.5,66.5 C 120.833,66.5 124.167,66.5 127.5,66.5C 127.5,83.5 127.5,100.5 127.5,117.5C 124.167,117.5 120.833,117.5 117.5,117.5C 117.5,114.167 117.5,110.833 117.5,107.5C 117.5,97.1667 117.5,86.8333 117.5,76.5C 117.5,73.1667 117.5,69.8333 117.5,66.5 Z"/></g>
<g><path style="opacity:1" fill="#000000" d="M 127.5,66.5 C 130.833,66.5 134.167,66.5 137.5,66.5C 137.5,69.8333 137.5,73.1667 137.5,76.5C 144.5,76.5 151.5,76.5 158.5,76.5C 158.5,79.8333 158.5,83.1667 158.5,86.5C 165.167,86.5 171.833,86.5 178.5,86.5C 178.5,89.8333 178.5,93.1667 178.5,96.5C 171.833,96.5 165.167,96.5 158.5,96.5C 158.5,100.167 158.5,103.833 158.5,107.5C 151.5,107.5 144.5,107.5 137.5,107.5C 137.5,110.833 137.5,114.167 137.5,117.5C 134.167,117.5 130.833,117.5 127.5,117.5C 127.5,100.5 127.5,83.5 127.5,66.5 Z"/></g>
<g><path style="opacity:1" fill="#540071" d="M 137.5,66.5 C 144.5,66.5 151.5,66.5 158.5,66.5C 158.5,69.8333 158.5,73.1667 158.5,76.5C 151.5,76.5 144.5,76.5 137.5,76.5C 137.5,73.1667 137.5,69.8333 137.5,66.5 Z"/></g>
<g><path style="opacity:1" fill="#e900ff" d="M 158.5,66.5 C 165.167,66.5 171.833,66.5 178.5,66.5C 178.5,69.8333 178.5,73.1667 178.5,76.5C 171.833,76.5 165.167,76.5 158.5,76.5C 158.5,73.1667 158.5,69.8333 158.5,66.5 Z"/></g>
<g><path style="opacity:1" fill="#e900ff" d="M 76.5,76.5 C 76.5,79.8333 76.5,83.1667 76.5,86.5C 69.5,86.5 62.5,86.5 55.5,86.5C 55.5,83.1667 55.5,79.8333 55.5,76.5C 62.5,76.5 69.5,76.5 76.5,76.5 Z"/></g>
<g><path style="opacity:1" fill="#540071" d="M 76.5,76.5 C 83.1667,76.5 89.8333,76.5 96.5,76.5C 96.5,79.8333 96.5,83.1667 96.5,86.5C 89.8333,86.5 83.1667,86.5 76.5,86.5C 76.5,83.1667 76.5,79.8333 76.5,76.5 Z"/></g>
<g><path style="opacity:1" fill="#000000" d="M 96.5,76.5 C 103.5,76.5 110.5,76.5 117.5,76.5C 117.5,86.8333 117.5,97.1667 117.5,107.5C 110.5,107.5 103.5,107.5 96.5,107.5C 96.5,103.833 96.5,100.167 96.5,96.5C 89.8333,96.5 83.1667,96.5 76.5,96.5C 76.5,93.1667 76.5,89.8333 76.5,86.5C 83.1667,86.5 89.8333,86.5 96.5,86.5C 96.5,83.1667 96.5,79.8333 96.5,76.5 Z"/></g>
<g><path style="opacity:1" fill="#540071" d="M 158.5,76.5 C 165.167,76.5 171.833,76.5 178.5,76.5C 178.5,79.8333 178.5,83.1667 178.5,86.5C 171.833,86.5 165.167,86.5 158.5,86.5C 158.5,83.1667 158.5,79.8333 158.5,76.5 Z"/></g>
<g><path style="opacity:1" fill="#e900ff" d="M 178.5,76.5 C 185.5,76.5 192.5,76.5 199.5,76.5C 199.5,79.8333 199.5,83.1667 199.5,86.5C 192.5,86.5 185.5,86.5 178.5,86.5C 178.5,83.1667 178.5,79.8333 178.5,76.5 Z"/></g>
<g><path style="opacity:1" fill="#e900ff" d="M 55.5,86.5 C 55.5,89.8333 55.5,93.1667 55.5,96.5C 62.5,96.5 69.5,96.5 76.5,96.5C 76.5,100.167 76.5,103.833 76.5,107.5C 69.5,107.5 62.5,107.5 55.5,107.5C 55.5,110.833 55.5,114.167 55.5,117.5C 55.5,131.167 55.5,144.833 55.5,158.5C 55.5,161.833 55.5,165.167 55.5,168.5C 52.1667,168.5 48.8333,168.5 45.5,168.5C 45.5,141.167 45.5,113.833 45.5,86.5C 48.8333,86.5 52.1667,86.5 55.5,86.5 Z"/></g>
<g><path style="opacity:1" fill="#540071" d="M 55.5,86.5 C 62.5,86.5 69.5,86.5 76.5,86.5C 76.5,89.8333 76.5,93.1667 76.5,96.5C 69.5,96.5 62.5,96.5 55.5,96.5C 55.5,93.1667 55.5,89.8333 55.5,86.5 Z"/></g>
<g><path style="opacity:1" fill="#540071" d="M 178.5,86.5 C 185.5,86.5 192.5,86.5 199.5,86.5C 199.5,89.8333 199.5,93.1667 199.5,96.5C 192.5,96.5 185.5,96.5 178.5,96.5C 178.5,93.1667 178.5,89.8333 178.5,86.5 Z"/></g>
<g><path style="opacity:1" fill="#e900ff" d="M 199.5,86.5 C 202.833,86.5 206.167,86.5 209.5,86.5C 209.5,113.833 209.5,141.167 209.5,168.5C 206.167,168.5 202.833,168.5 199.5,168.5C 199.5,165.167 199.5,161.833 199.5,158.5C 199.5,144.833 199.5,131.167 199.5,117.5C 199.5,114.167 199.5,110.833 199.5,107.5C 192.5,107.5 185.5,107.5 178.5,107.5C 178.5,103.833 178.5,100.167 178.5,96.5C 185.5,96.5 192.5,96.5 199.5,96.5C 199.5,93.1667 199.5,89.8333 199.5,86.5 Z"/></g>
<g><path style="opacity:1" fill="#540071" d="M 76.5,96.5 C 83.1667,96.5 89.8333,96.5 96.5,96.5C 96.5,100.167 96.5,103.833 96.5,107.5C 89.8333,107.5 83.1667,107.5 76.5,107.5C 76.5,103.833 76.5,100.167 76.5,96.5 Z"/></g>
<g><path style="opacity:1" fill="#540071" d="M 178.5,96.5 C 178.5,100.167 178.5,103.833 178.5,107.5C 171.833,107.5 165.167,107.5 158.5,107.5C 158.5,103.833 158.5,100.167 158.5,96.5C 165.167,96.5 171.833,96.5 178.5,96.5 Z"/></g>
<g><path style="opacity:1" fill="#540071" d="M 76.5,107.5 C 76.5,110.833 76.5,114.167 76.5,117.5C 69.5,117.5 62.5,117.5 55.5,117.5C 55.5,114.167 55.5,110.833 55.5,107.5C 62.5,107.5 69.5,107.5 76.5,107.5 Z"/></g>
<g><path style="opacity:1" fill="#e900ff" d="M 76.5,107.5 C 83.1667,107.5 89.8333,107.5 96.5,107.5C 96.5,110.833 96.5,114.167 96.5,117.5C 89.8333,117.5 83.1667,117.5 76.5,117.5C 76.5,114.167 76.5,110.833 76.5,107.5 Z"/></g>
<g><path style="opacity:1" fill="#540071" d="M 96.5,107.5 C 103.5,107.5 110.5,107.5 117.5,107.5C 117.5,110.833 117.5,114.167 117.5,117.5C 110.5,117.5 103.5,117.5 96.5,117.5C 96.5,114.167 96.5,110.833 96.5,107.5 Z"/></g>
<g><path style="opacity:1" fill="#540071" d="M 158.5,107.5 C 158.5,110.833 158.5,114.167 158.5,117.5C 151.5,117.5 144.5,117.5 137.5,117.5C 137.5,114.167 137.5,110.833 137.5,107.5C 144.5,107.5 151.5,107.5 158.5,107.5 Z"/></g>
<g><path style="opacity:1" fill="#e900ff" d="M 158.5,107.5 C 165.167,107.5 171.833,107.5 178.5,107.5C 178.5,110.833 178.5,114.167 178.5,117.5C 171.833,117.5 165.167,117.5 158.5,117.5C 158.5,114.167 158.5,110.833 158.5,107.5 Z"/></g>
<g><path style="opacity:1" fill="#540071" d="M 178.5,107.5 C 185.5,107.5 192.5,107.5 199.5,107.5C 199.5,110.833 199.5,114.167 199.5,117.5C 192.5,117.5 185.5,117.5 178.5,117.5C 178.5,114.167 178.5,110.833 178.5,107.5 Z"/></g>
<g><path style="opacity:1" fill="#000000" d="M 55.5,117.5 C 62.5,117.5 69.5,117.5 76.5,117.5C 76.5,120.833 76.5,124.167 76.5,127.5C 83.1667,127.5 89.8333,127.5 96.5,127.5C 96.5,130.833 96.5,134.167 96.5,137.5C 96.5,140.833 96.5,144.167 96.5,147.5C 89.8333,147.5 83.1667,147.5 76.5,147.5C 76.5,151.167 76.5,154.833 76.5,158.5C 69.5,158.5 62.5,158.5 55.5,158.5C 55.5,144.833 55.5,131.167 55.5,117.5 Z"/></g>
<g><path style="opacity:1" fill="#540071" d="M 76.5,117.5 C 83.1667,117.5 89.8333,117.5 96.5,117.5C 96.5,120.833 96.5,124.167 96.5,127.5C 89.8333,127.5 83.1667,127.5 76.5,127.5C 76.5,124.167 76.5,120.833 76.5,117.5 Z"/></g>
<g><path style="opacity:1" fill="#e900ff" d="M 96.5,117.5 C 103.5,117.5 110.5,117.5 117.5,117.5C 117.5,120.833 117.5,124.167 117.5,127.5C 110.5,127.5 103.5,127.5 96.5,127.5C 96.5,124.167 96.5,120.833 96.5,117.5 Z"/></g>
<g><path style="opacity:1" fill="#540071" d="M 117.5,117.5 C 120.833,117.5 124.167,117.5 127.5,117.5C 130.833,117.5 134.167,117.5 137.5,117.5C 137.5,120.833 137.5,124.167 137.5,127.5C 130.833,127.5 124.167,127.5 117.5,127.5C 117.5,124.167 117.5,120.833 117.5,117.5 Z"/></g>
<g><path style="opacity:1" fill="#e900ff" d="M 137.5,117.5 C 144.5,117.5 151.5,117.5 158.5,117.5C 158.5,120.833 158.5,124.167 158.5,127.5C 151.5,127.5 144.5,127.5 137.5,127.5C 137.5,124.167 137.5,120.833 137.5,117.5 Z"/></g>
<g><path style="opacity:1" fill="#540071" d="M 158.5,117.5 C 165.167,117.5 171.833,117.5 178.5,117.5C 178.5,120.833 178.5,124.167 178.5,127.5C 171.833,127.5 165.167,127.5 158.5,127.5C 158.5,124.167 158.5,120.833 158.5,117.5 Z"/></g>
<g><path style="opacity:1" fill="#000000" d="M 178.5,117.5 C 185.5,117.5 192.5,117.5 199.5,117.5C 199.5,131.167 199.5,144.833 199.5,158.5C 192.5,158.5 185.5,158.5 178.5,158.5C 178.5,154.833 178.5,151.167 178.5,147.5C 171.833,147.5 165.167,147.5 158.5,147.5C 158.5,144.167 158.5,140.833 158.5,137.5C 158.5,134.167 158.5,130.833 158.5,127.5C 165.167,127.5 171.833,127.5 178.5,127.5C 178.5,124.167 178.5,120.833 178.5,117.5 Z"/></g>
<g><path style="opacity:1" fill="#540071" d="M 96.5,127.5 C 103.5,127.5 110.5,127.5 117.5,127.5C 117.5,130.833 117.5,134.167 117.5,137.5C 110.5,137.5 103.5,137.5 96.5,137.5C 96.5,134.167 96.5,130.833 96.5,127.5 Z"/></g>
<g><path style="opacity:1" fill="#e900ff" d="M 117.5,127.5 C 124.167,127.5 130.833,127.5 137.5,127.5C 137.5,130.833 137.5,134.167 137.5,137.5C 134.167,137.5 130.833,137.5 127.5,137.5C 127.5,140.833 127.5,144.167 127.5,147.5C 127.5,161.167 127.5,174.833 127.5,188.5C 127.5,192.167 127.5,195.833 127.5,199.5C 130.833,199.5 134.167,199.5 137.5,199.5C 137.5,202.833 137.5,206.167 137.5,209.5C 130.833,209.5 124.167,209.5 117.5,209.5C 117.5,206.167 117.5,202.833 117.5,199.5C 110.5,199.5 103.5,199.5 96.5,199.5C 96.5,195.833 96.5,192.167 96.5,188.5C 103.5,188.5 110.5,188.5 117.5,188.5C 117.5,185.167 117.5,181.833 117.5,178.5C 117.5,168.167 117.5,157.833 117.5,147.5C 117.5,144.167 117.5,140.833 117.5,137.5C 117.5,134.167 117.5,130.833 117.5,127.5 Z"/></g>
<g><path style="opacity:1" fill="#540071" d="M 137.5,127.5 C 144.5,127.5 151.5,127.5 158.5,127.5C 158.5,130.833 158.5,134.167 158.5,137.5C 151.5,137.5 144.5,137.5 137.5,137.5C 137.5,134.167 137.5,130.833 137.5,127.5 Z"/></g>
<g><path style="opacity:1" fill="#7f008b" d="M 96.5,137.5 C 103.5,137.5 110.5,137.5 117.5,137.5C 117.5,140.833 117.5,144.167 117.5,147.5C 110.5,147.5 103.5,147.5 96.5,147.5C 96.5,144.167 96.5,140.833 96.5,137.5 Z"/></g>
<g><path style="opacity:1" fill="#750084" d="M 137.5,137.5 C 144.5,137.5 151.5,137.5 158.5,137.5C 158.5,140.833 158.5,144.167 158.5,147.5C 148.167,147.5 137.833,147.5 127.5,147.5C 127.5,144.167 127.5,140.833 127.5,137.5C 130.833,137.5 134.167,137.5 137.5,137.5 Z"/></g>
<g><path style="opacity:1" fill="#7f008b" d="M 96.5,147.5 C 96.5,151.167 96.5,154.833 96.5,158.5C 89.8333,158.5 83.1667,158.5 76.5,158.5C 76.5,154.833 76.5,151.167 76.5,147.5C 83.1667,147.5 89.8333,147.5 96.5,147.5 Z"/></g>
<g><path style="opacity:1" fill="#000000" d="M 96.5,147.5 C 103.5,147.5 110.5,147.5 117.5,147.5C 117.5,157.833 117.5,168.167 117.5,178.5C 110.5,178.5 103.5,178.5 96.5,178.5C 96.5,175.167 96.5,171.833 96.5,168.5C 89.8333,168.5 83.1667,168.5 76.5,168.5C 76.5,165.167 76.5,161.833 76.5,158.5C 83.1667,158.5 89.8333,158.5 96.5,158.5C 96.5,154.833 96.5,151.167 96.5,147.5 Z"/></g>
<g><path style="opacity:1" fill="#000000" d="M 127.5,147.5 C 137.833,147.5 148.167,147.5 158.5,147.5C 158.5,151.167 158.5,154.833 158.5,158.5C 165.167,158.5 171.833,158.5 178.5,158.5C 178.5,161.833 178.5,165.167 178.5,168.5C 171.833,168.5 165.167,168.5 158.5,168.5C 158.5,171.833 158.5,175.167 158.5,178.5C 151.5,178.5 144.5,178.5 137.5,178.5C 137.5,181.833 137.5,185.167 137.5,188.5C 134.167,188.5 130.833,188.5 127.5,188.5C 127.5,174.833 127.5,161.167 127.5,147.5 Z"/></g>
<g><path style="opacity:1" fill="#7f008b" d="M 158.5,147.5 C 165.167,147.5 171.833,147.5 178.5,147.5C 178.5,151.167 178.5,154.833 178.5,158.5C 171.833,158.5 165.167,158.5 158.5,158.5C 158.5,154.833 158.5,151.167 158.5,147.5 Z"/></g>
<g><path style="opacity:1" fill="#7f008b" d="M 55.5,158.5 C 62.5,158.5 69.5,158.5 76.5,158.5C 76.5,161.833 76.5,165.167 76.5,168.5C 69.5,168.5 62.5,168.5 55.5,168.5C 55.5,165.167 55.5,161.833 55.5,158.5 Z"/></g>
<g><path style="opacity:1" fill="#7f008b" d="M 178.5,158.5 C 185.5,158.5 192.5,158.5 199.5,158.5C 199.5,161.833 199.5,165.167 199.5,168.5C 192.5,168.5 185.5,168.5 178.5,168.5C 178.5,165.167 178.5,161.833 178.5,158.5 Z"/></g>
<g><path style="opacity:1" fill="#e900ff" d="M 55.5,168.5 C 62.5,168.5 69.5,168.5 76.5,168.5C 76.5,171.833 76.5,175.167 76.5,178.5C 69.5,178.5 62.5,178.5 55.5,178.5C 55.5,175.167 55.5,171.833 55.5,168.5 Z"/></g>
<g><path style="opacity:1" fill="#540071" d="M 76.5,168.5 C 83.1667,168.5 89.8333,168.5 96.5,168.5C 96.5,171.833 96.5,175.167 96.5,178.5C 89.8333,178.5 83.1667,178.5 76.5,178.5C 76.5,175.167 76.5,171.833 76.5,168.5 Z"/></g>
<g><path style="opacity:1" fill="#540071" d="M 178.5,168.5 C 178.5,171.833 178.5,175.167 178.5,178.5C 171.833,178.5 165.167,178.5 158.5,178.5C 158.5,175.167 158.5,171.833 158.5,168.5C 165.167,168.5 171.833,168.5 178.5,168.5 Z"/></g>
<g><path style="opacity:1" fill="#fe1bff" d="M 178.5,168.5 C 185.5,168.5 192.5,168.5 199.5,168.5C 199.5,171.833 199.5,175.167 199.5,178.5C 192.5,178.5 185.5,178.5 178.5,178.5C 178.5,175.167 178.5,171.833 178.5,168.5 Z"/></g>
<g><path style="opacity:1" fill="#e900ff" d="M 76.5,178.5 C 83.1667,178.5 89.8333,178.5 96.5,178.5C 96.5,181.833 96.5,185.167 96.5,188.5C 89.8333,188.5 83.1667,188.5 76.5,188.5C 76.5,185.167 76.5,181.833 76.5,178.5 Z"/></g>
<g><path style="opacity:1" fill="#540071" d="M 96.5,178.5 C 103.5,178.5 110.5,178.5 117.5,178.5C 117.5,181.833 117.5,185.167 117.5,188.5C 110.5,188.5 103.5,188.5 96.5,188.5C 96.5,185.167 96.5,181.833 96.5,178.5 Z"/></g>
<g><path style="opacity:1" fill="#540071" d="M 158.5,178.5 C 158.5,181.833 158.5,185.167 158.5,188.5C 151.5,188.5 144.5,188.5 137.5,188.5C 137.5,185.167 137.5,181.833 137.5,178.5C 144.5,178.5 151.5,178.5 158.5,178.5 Z"/></g>
<g><path style="opacity:1" fill="#fe1bff" d="M 158.5,178.5 C 165.167,178.5 171.833,178.5 178.5,178.5C 178.5,181.833 178.5,185.167 178.5,188.5C 171.833,188.5 165.167,188.5 158.5,188.5C 158.5,185.167 158.5,181.833 158.5,178.5 Z"/></g>
<g><path style="opacity:1" fill="#540071" d="M 127.5,188.5 C 130.833,188.5 134.167,188.5 137.5,188.5C 137.5,192.167 137.5,195.833 137.5,199.5C 134.167,199.5 130.833,199.5 127.5,199.5C 127.5,195.833 127.5,192.167 127.5,188.5 Z"/></g>
<g><path style="opacity:1" fill="#e900ff" d="M 137.5,188.5 C 144.5,188.5 151.5,188.5 158.5,188.5C 158.5,192.167 158.5,195.833 158.5,199.5C 151.5,199.5 144.5,199.5 137.5,199.5C 137.5,195.833 137.5,192.167 137.5,188.5 Z"/></g>
<g><path style="opacity:1" fill="#e900ff" d="M 96.5,209.5 C 97.8333,209.5 99.1667,209.5 100.5,209.5C 100.5,218.167 100.5,226.833 100.5,235.5C 99.1667,235.5 97.8333,235.5 96.5,235.5C 96.5,226.833 96.5,218.167 96.5,209.5 Z"/></g>
<g><path style="opacity:1" fill="#e900fe" d="M 159.5,209.5 C 160.833,209.5 162.167,209.5 163.5,209.5C 163.666,216.508 163.5,223.508 163,230.5C 162.417,232.002 161.584,233.335 160.5,234.5C 147.477,237.307 142.977,232.307 147,219.5C 150.922,217.688 155.089,217.021 159.5,217.5C 159.5,214.833 159.5,212.167 159.5,209.5 Z"/></g>
<g><path style="opacity:1" fill="#e800fd" d="M 55.5,212.5 C 60.5111,212.334 65.5111,212.501 70.5,213C 74.6489,217.801 74.3156,222.301 69.5,226.5C 70.7885,229.58 72.4552,232.414 74.5,235C 72.7412,235.798 71.0745,235.631 69.5,234.5C 68.2939,231.921 66.9606,229.421 65.5,227C 63.5273,226.505 61.5273,226.338 59.5,226.5C 59.5,229.5 59.5,232.5 59.5,235.5C 58.1667,235.5 56.8333,235.5 55.5,235.5C 55.3345,231.486 55.5012,227.486 56,223.5C 60.08,222.7 64.2467,222.2 68.5,222C 69.4061,220.301 69.7394,218.467 69.5,216.5C 64.8333,216.5 60.1667,216.5 55.5,216.5C 55.5,215.167 55.5,213.833 55.5,212.5 Z"/></g>
<g><path style="opacity:1" fill="#e800fd" d="M 78.5,217.5 C 82.5138,217.334 86.5138,217.501 90.5,218C 92.7289,220.553 93.0623,223.386 91.5,226.5C 87.5546,227.491 83.5546,227.824 79.5,227.5C 79.33,228.822 79.6634,229.989 80.5,231C 84.1516,231.499 87.8183,231.665 91.5,231.5C 91.5,232.833 91.5,234.167 91.5,235.5C 87.4862,235.666 83.4862,235.499 79.5,235C 78.6919,234.692 78.0253,234.192 77.5,233.5C 75.9036,227.936 76.237,222.603 78.5,217.5 Z"/></g>
<g><path style="opacity:1" fill="#e700fc" d="M 107.5,217.5 C 118.765,214.933 123.265,219.266 121,230.5C 119.336,234.084 116.503,235.751 112.5,235.5C 106.486,235.362 103.486,232.196 103.5,226C 103.869,222.637 105.203,219.804 107.5,217.5 Z"/></g>
<g><path style="opacity:1" fill="#e900ff" d="M 126.5,217.5 C 130.846,217.334 135.179,217.501 139.5,218C 140,218.5 140.5,219 141,219.5C 141.804,224.751 141.637,229.918 140.5,235C 135.713,235.879 131.047,235.545 126.5,234C 124.964,230.76 125.297,227.76 127.5,225C 131.152,224.501 134.818,224.335 138.5,224.5C 138.67,223.178 138.337,222.011 137.5,221C 133.848,220.501 130.182,220.335 126.5,220.5C 126.5,219.5 126.5,218.5 126.5,217.5 Z"/></g>
<g><path style="opacity:1" fill="#e900fe" d="M 169.5,217.5 C 173.846,217.334 178.179,217.501 182.5,218C 185.167,221 185.167,224 182.5,227C 178.514,227.499 174.514,227.666 170.5,227.5C 170.33,228.822 170.663,229.989 171.5,231C 175.486,231.499 179.486,231.666 183.5,231.5C 183.5,232.833 183.5,234.167 183.5,235.5C 167.93,237.932 163.263,231.932 169.5,217.5 Z"/></g>
<g><path style="opacity:1" fill="#e900ff" d="M 189.5,217.5 C 192.833,217.5 196.167,217.5 199.5,217.5C 199.5,218.5 199.5,219.5 199.5,220.5C 196.881,220.232 194.381,220.565 192,221.5C 191.501,226.155 191.334,230.821 191.5,235.5C 190.5,235.5 189.5,235.5 188.5,235.5C 188.211,229.409 188.545,223.409 189.5,217.5 Z"/></g>
<g><path style="opacity:1" fill="#000000" d="M 80.5,220.5 C 83.1873,220.336 85.854,220.503 88.5,221C 89.9255,222.714 89.5922,224.047 87.5,225C 84.854,225.497 82.1873,225.664 79.5,225.5C 79.366,223.708 79.6993,222.042 80.5,220.5 Z"/></g>
<g><path style="opacity:1" fill="#000000" d="M 109.5,220.5 C 117.935,219.864 120.268,223.364 116.5,231C 107.43,232.178 105.097,228.678 109.5,220.5 Z"/></g>
<g><path style="opacity:1" fill="#000000" d="M 151.5,220.5 C 154.167,220.5 156.833,220.5 159.5,220.5C 159.665,223.85 159.498,227.183 159,230.5C 156.263,231.61 153.429,231.777 150.5,231C 147.831,227.188 148.164,223.688 151.5,220.5 Z"/></g>
<g><path style="opacity:1" fill="#000000" d="M 171.5,220.5 C 174.187,220.336 176.854,220.503 179.5,221C 180.833,222.333 180.833,223.667 179.5,225C 176.518,225.498 173.518,225.665 170.5,225.5C 170.366,223.708 170.699,222.042 171.5,220.5 Z"/></g>
<g><path style="opacity:1" fill="#000000" d="M 128.5,227.5 C 131.833,227.5 135.167,227.5 138.5,227.5C 138.5,228.833 138.5,230.167 138.5,231.5C 135.167,231.5 131.833,231.5 128.5,231.5C 128.5,230.167 128.5,228.833 128.5,227.5 Z"/></g>
</svg>
